<?xml version="1.0" standalone="no"?><!DOCTYPE svg PUBLIC "-//W3C//DTD SVG 1.1//EN" "http://www.w3.org/Graphics/SVG/1.1/DTD/svg11.dtd"><svg t="1605194396249" class="icon" viewBox="0 0 1024 1024" version="1.1" xmlns="http://www.w3.org/2000/svg" p-id="2835" xmlns:xlink="http://www.w3.org/1999/xlink" width="64" height="64"><defs><style type="text/css"></style></defs><path d="M685.93289 64.201208 310.036707 64.201208c-39.544645 0-71.599711 32.054043-71.599711 71.600735l0 752.399185c0 39.543621 32.05609 71.597665 71.599711 71.597665l375.896182 0c39.543621 0 71.599711-32.054043 71.599711-71.597665l0-752.399185C757.531578 96.256274 725.475488 64.201208 685.93289 64.201208L685.93289 64.201208zM497.984287 917.901567c-24.714891 0-44.748157-20.034289-44.748157-44.748157 0-24.714891 20.034289-44.750203 44.748157-44.750203 24.712845 0 44.74918 20.035312 44.74918 44.750203C542.733467 897.867278 522.697131 917.901567 497.984287 917.901567L497.984287 917.901567zM721.732234 786.508028 274.23634 786.508028l0-644.394333 447.495894 0L721.732234 786.508028 721.732234 786.508028z" p-id="2836" fill="#515151"></path></svg>