<?xml version="1.0" standalone="no"?><!DOCTYPE svg PUBLIC "-//W3C//DTD SVG 1.1//EN" "http://www.w3.org/Graphics/SVG/1.1/DTD/svg11.dtd"><svg t="1605274270440" class="icon" viewBox="0 0 1024 1024" version="1.1" xmlns="http://www.w3.org/2000/svg" p-id="2811" xmlns:xlink="http://www.w3.org/1999/xlink" width="64" height="64"><defs><style type="text/css"></style></defs><path d="M803.537 416.695H224.12c-37.844 0-68.799 30.955-68.799 68.799v405.697c0 37.784 30.955 68.795 68.799 68.795h579.417c37.729 0 68.687-31.011 68.687-68.795V485.494c0-37.844-30.958-68.799-68.687-68.799zM556.48 651.01l0.17 138.794c0.057 35.167-3.699 62.766-42.851 62.766-39.091 0-42.451-28.511-42.451-63.565l-1.02-137.994s-27.43-24.126-27.43-65.495c0-41.371 31.81-63.565 70.901-63.565 39.152 0 70.906 23.049 70.906 63.565-0.001 40.569-28.225 65.494-28.225 65.494z m0 0M670.527 345.09v-80.747c-0.112-74.149-82.662-134.409-156.693-134.521-74.149 0.112-156.699 60.373-156.754 134.521v80.747h-67.263v-80.747c0.061-111.19 112.766-201.671 223.956-201.728 111.195 0.057 223.956 90.538 223.956 201.728v80.747h-67.202z m0 0" p-id="2812" fill="#707070"></path></svg>