<?xml version="1.0" standalone="no"?><!DOCTYPE svg PUBLIC "-//W3C//DTD SVG 1.1//EN" "http://www.w3.org/Graphics/SVG/1.1/DTD/svg11.dtd"><svg t="1608205057475" class="icon" viewBox="0 0 1024 1024" version="1.1" xmlns="http://www.w3.org/2000/svg" p-id="4010" xmlns:xlink="http://www.w3.org/1999/xlink" width="200" height="200"><defs><style type="text/css"></style></defs><path d="M442.304 64H581.76c204.16 0 370.56 166.528 378.048 374.912l0.256 14.592v23.232c0 130.88-112.768 266.24-333.44 413.184l-20.992 13.824L517.056 960v-116.992H442.24C233.408 843.008 64 668.672 64 453.504c0-210.24 161.792-381.568 364.16-389.248L442.24 64zM581.76 154.368H442.24c-160.448 0-290.56 133.952-290.56 299.136 0 160.64 123.008 291.712 277.312 298.88l13.248 0.256h162.56v43.84c173.44-119.68 261.184-225.024 267.008-310.656l0.32-9.088v-23.232c0-165.184-130.048-299.136-290.56-299.136zM386.56 395.52c30.784 0 55.744 25.728 55.744 57.408s-24.96 57.408-55.68 57.408a56.576 56.576 0 0 1-55.744-57.408c0-31.68 24.96-57.408 55.68-57.408z m250.88 0c30.72 0 55.68 25.728 55.68 57.408s-24.96 57.408-55.68 57.408a56.576 56.576 0 0 1-55.744-57.408c0-31.68 24.96-57.408 55.68-57.408z" fill="#ffffff" p-id="4011"></path></svg>