<?xml version="1.0" standalone="no"?><!DOCTYPE svg PUBLIC "-//W3C//DTD SVG 1.1//EN" "http://www.w3.org/Graphics/SVG/1.1/DTD/svg11.dtd"><svg t="1608205087775" class="icon" viewBox="0 0 1024 1024" version="1.1" xmlns="http://www.w3.org/2000/svg" p-id="4824" xmlns:xlink="http://www.w3.org/1999/xlink" width="200" height="200"><defs><style type="text/css"></style></defs><path d="M284.672 1024c-86.016 0-156.16-69.12-157.696-154.624V155.136c0.512-34.816 12.8-68.608 34.304-95.744C187.392 26.624 224.768 5.632 266.24 1.024c41.472-4.608 82.944 7.168 115.712 33.28l457.216 358.4c9.216 7.168 17.408 15.872 24.576 24.576 52.224 66.048 40.96 161.792-24.576 214.016l-457.216 358.4c-26.624 21.504-60.416 33.28-94.72 33.792-1.024 0.512-2.048 0.512-2.56 0.512z m-0.512-962.56c-3.584 0-7.168 0-11.264 0.512-25.6 3.072-48.128 15.36-64 35.84-13.312 16.384-20.48 37.376-20.992 57.856v713.216c1.024 52.224 45.056 94.72 97.792 94.208 20.992-0.512 41.472-7.68 57.856-20.992l457.216-358.4c39.424-31.232 46.08-88.576 14.848-128-4.096-5.632-9.216-10.24-14.848-14.848l-457.216-358.4c-16.896-13.824-37.376-20.992-59.392-20.992z" p-id="4825" fill="#ffffff"></path></svg>