<?xml version="1.0" standalone="no"?><!DOCTYPE svg PUBLIC "-//W3C//DTD SVG 1.1//EN" "http://www.w3.org/Graphics/SVG/1.1/DTD/svg11.dtd"><svg t="1608565475269" class="icon" viewBox="0 0 1024 1024" version="1.1" xmlns="http://www.w3.org/2000/svg" p-id="4863" xmlns:xlink="http://www.w3.org/1999/xlink" width="32" height="32"><defs><style type="text/css"></style></defs><path d="M511.95 554.368L147.077 914.596c-11.79 11.64-30.785 11.52-42.426-0.271-11.64-11.791-11.518-30.786 0.272-42.426l386.164-381.248c11.768-11.618 30.718-11.522 42.368 0.214L667.868 626.27c11.673 11.758 11.603 30.753-0.156 42.426-11.758 11.672-30.753 11.602-42.426-0.156L511.95 554.368z" fill="#1296db" p-id="4864"></path><path d="M462.077 914.596c-11.79 11.64-30.785 11.52-42.426-0.271-11.64-11.791-11.518-30.786 0.272-42.426l386.164-381.248c11.86-11.71 30.993-11.506 42.602 0.453l150.18 154.703c11.54 11.888 11.258 30.88-0.63 42.421s-30.88 11.26-42.422-0.629L826.711 554.604 462.077 914.596zM243 431c-60.751 0-110-49.249-110-110s49.249-110 110-110 110 49.249 110 110-49.249 110-110 110z m0-60c27.614 0 50-22.386 50-50s-22.386-50-50-50-50 22.386-50 50 22.386 50 50 50z" fill="#1296db" p-id="4865"></path><path d="M60 159v706h904V159H60z m0-60h904c33.137 0 60 26.863 60 60v706c0 33.137-26.863 60-60 60H60c-33.137 0-60-26.863-60-60V159c0-33.137 26.863-60 60-60z" fill="#1296db" p-id="4866"></path></svg>